<svg xmlns="http://www.w3.org/2000/svg" width="32" height="32" viewBox="0 0 32 32">
  <path fill="#4B0082" d="M15.4993875,23 C15.2025051,23 14.9051476,23 14.6082652,23 C14.5859396,22.9893686 14.5659891,22.9716497 14.5436636,22.9675996 C13.5390135,22.851667 12.6602415,22.414262 11.8479712,21.7981485 C11.0718018,21.2098792 10.4148604,20.4839083 9.78261957,19.7300933 C9.69759244,19.6293484 9.60876522,19.5883417 9.47956199,19.5903667 C8.9038476,19.596948 8.32955824,19.592898 7.75384385,19.592898 C7.48308708,19.592898 7.42846071,19.5539163 7.36195905,19.2805381 C7.25460637,18.8345267 7.17385435,18.3824402 7.11542789,17.9257974 C7.07315183,17.6022998 7.03847596,17.2752586 7,16.949736 C7,16.5923194 7,16.2369278 7,15.8815361 C7.03847596,15.6036016 7.06887672,15.3236421 7.11115278,15.0457077 C7.33963349,13.5573154 7.99419985,12.3255949 9.06962674,11.3500398 C9.91847296,10.5790121 10.9003225,10.0707312 11.9434486,9.67838287 C12.0104253,9.65256382 12.078827,9.63737615 12.1353534,9.57308165 C12.5334133,9.11643885 13.0122253,8.9655746 13.5760644,9.16807695 C13.59839,9.1766833 13.6245156,9.19187098 13.6449411,9.18528965 C14.0373009,9.09264483 14.439161,9.07745715 14.8315208,9 C15.239556,9 15.6480662,9 16.0565764,9 C16.3800595,9.05366312 16.7030676,9.09264483 17.0222756,9.16352065 C17.8611465,9.3488103 18.6430161,9.67180155 19.3137328,10.2555146 C19.5844896,10.4924423 19.8314958,10.7572141 19.9402735,11.1191871 C20.4513863,12.8075504 20.9748494,14.49237 21.4318108,16.195921 C21.4679117,16.3336226 21.5244381,16.4176611 21.6498412,16.4824619 C22.7086427,17.0292182 23.7660192,17.5850871 24.8229206,18.1384248 C24.9098477,18.1839878 25.0210005,18.2270196 24.9787245,18.3642149 C24.9402485,18.4892601 24.8371709,18.4634411 24.7440686,18.4548347 C24.4590615,18.431547 24.1764294,18.4244594 23.8933223,18.4700224 C23.19838,18.5798799 22.5675642,18.8770521 21.959549,19.2278875 C20.7007675,19.9543646 19.5426886,20.84335 18.3679842,21.7029724 C17.7841946,22.1297461 17.1738043,22.4977942 16.5049876,22.7458596 C16.1762794,22.8663484 15.8328458,22.9159615 15.4993875,23 Z M9.97024926,13.738555 C9.99447486,15.3692052 10.2248556,16.8940479 10.5241131,18.4102842 C10.5459636,18.5201418 10.59869,18.5500108 10.6955924,18.5201418 C10.9402235,18.4487597 11.1848546,18.3844652 11.4290107,18.3135894 C12.8355209,17.891372 14.2035551,17.3400593 15.60199,16.8920229 C17.1923298,16.3812107 18.8073702,16.0192377 20.4765619,16 C20.7392435,15.997975 20.7392435,15.997975 20.6746419,15.7306719 C20.3449836,14.3820062 19.9165229,13.0642222 19.5384135,11.7312505 C19.3669342,11.1303247 19.0192255,10.7319014 18.5418385,10.4195415 C18.2672817,10.2403269 17.9765744,10.0965502 17.6730418,9.98416142 C16.6541414,9.60497577 15.6076902,9.5427063 14.5465137,9.66572648 C13.3380835,9.80342808 12.1904548,10.1588197 11.1007775,10.7339264 C10.6119903,10.9946482 10.2984825,11.4016779 10.1493287,11.9550155 C9.9840246,12.5645476 9.99257481,13.1912924 9.97024926,13.738555 Z M26,20.1912924 C25.9311233,20.0120778 25.8888472,19.8207131 25.7776944,19.6592175 C25.4926873,19.2516815 25.0946274,19.0734794 24.639566,19.0542417 C23.5014375,19.0041224 22.5376384,19.5321472 21.601865,20.1416793 C21.5149379,20.1993925 21.5700393,20.2343241 21.6118403,20.2707746 C21.7429436,20.3831634 21.8726218,20.4945397 22.0061002,20.6003471 C22.7252681,21.1582411 23.4729368,21.646778 24.3844846,21.7520793 C25.0556764,21.8295364 25.8194955,21.5045201 25.9771994,20.6560353 C25.9790995,20.6454039 25.9914498,20.6367976 25.999525,20.6256599 C26,20.4823895 26,20.3376003 26,20.1912924 Z"/>
</svg>
