<svg xmlns="http://www.w3.org/2000/svg" width="32" height="32" viewBox="0 0 32 32">
  <g fill="none" fill-rule="evenodd">
    <path fill="#4B0082" fill-rule="nonzero" d="M7.25855632,24.9352831 L24.7408214,24.9352831 L24.7408214,22.8350965 L7.25855632,22.8350965 L7.25855632,24.9352831 Z M20.1182327,14.6057872 L15.9996889,7 L11.881145,14.6057872 L4,8.83883012 L7.25886745,21.4016801 L24.7411325,21.4016801 L28,8.83883012 L20.1182327,14.6057872 Z M10.4769757,19.3792782 C9.86527691,19.3792782 9.36932172,18.8836341 9.36932172,18.2716241 C9.36932172,17.6596142 9.86527691,17.1639701 10.4769757,17.1639701 C11.0886745,17.1639701 11.5846297,17.6596142 11.5846297,18.2716241 C11.5846297,18.8836341 11.0886745,19.3792782 10.4769757,19.3792782 Z M16.0774736,20.0606721 C15.0892968,20.0606721 14.2884256,19.2598009 14.2884256,18.2716241 C14.2884256,17.2834474 15.0892968,16.4825762 16.0774736,16.4825762 C17.0656503,16.4825762 17.8665215,17.2837586 17.8665215,18.2716241 C17.8665215,19.2594897 17.0656503,20.0606721 16.0774736,20.0606721 Z M21.6779714,19.3792782 C21.0662726,19.3792782 20.5703174,18.8836341 20.5703174,18.2716241 C20.5703174,17.6596142 21.0662726,17.1639701 21.6779714,17.1639701 C22.2896702,17.1639701 22.7856254,17.6596142 22.7856254,18.2716241 C22.7856254,18.8836341 22.2896702,19.3792782 21.6779714,19.3792782 Z"/>
    <circle cx="4" cy="8" r="2" fill="#4B0082"/>
    <circle cx="16" cy="6" r="2" fill="#4B0082"/>
    <circle cx="28" cy="8" r="2" fill="#4B0082"/>
  </g>
</svg>
