<svg xmlns="http://www.w3.org/2000/svg" width="32" height="32" viewBox="0 0 32 32">
  <path fill="#4B0082" d="M29.601,19.6336333 C29.7885,18.9781133 29.5542,17.3622011 30,17.2218821 C30,17.1282364 29.9766,16.9173092 29.6946,16.8939725 C29.6946,14.8568042 28.92,14.9271133 28.9434,12.889945 C28.6617,12.889945 28.4973,13.1948172 28.4034,14.22492 C28.2153,12.749626 26.22,11.438586 25.7268,10.8064026 C25.6797,10.923385 25.3512,11.0170307 25.7031,11.5555683 C25.0929,10.993694 23.3556,10.5254655 21.8292,10.5254655 C20.3034,10.5254655 18.0243,10.845297 17.6268,9.54233504 C17.9925,9.54233504 17.9544,8.8515109 17.5767,8.8515109 C17.4606,8.8515109 17.3055,8.8515109 17.1486,8.8515109 C17.1255,8.39435226 17.5359,7.76426319 17.9085,7.69455248 C17.7792,8.38507744 19.317,8.24475846 19.317,7.71788912 C19.317,7.19101977 19.1526,6.79310027 18.5775,6.79310027 C18.0021,6.79310027 17.6031,6.74612782 17.2038,7.10934156 C17.1924,6.80506778 17.6382,6.44215323 17.697,5.63434674 C17.7558,4.82654024 16.8987,4.10071115 16.4997,3 C16.1004,4.10041196 15.2436,4.82624105 15.3024,5.63434674 C15.3612,6.44215323 15.807,6.80506778 15.7953,7.10934156 C15.396,6.74642701 14.9967,6.79310027 14.4216,6.79310027 C13.8465,6.79310027 13.6824,7.19131896 13.6824,7.71788912 C13.6824,8.24475846 15.2199,8.38507744 15.0909,7.69455248 C15.4632,7.76396401 15.8736,8.39435226 15.8502,8.8515109 C15.6939,8.8515109 15.5382,8.8515109 15.4224,8.8515109 C15.0447,8.8515109 15.0072,9.54233504 15.3726,9.54233504 C14.9751,10.845297 12.6963,10.5254655 11.1699,10.5254655 C9.6435,10.5254655 7.9065,10.993694 7.296,11.5555683 C7.6482,11.0170307 7.3197,10.923385 7.2726,10.8064026 C6.7797,11.438586 4.7841,12.7499252 4.596,14.22492 C4.5021,13.1948172 4.3377,12.889945 4.056,12.889945 C4.0794,14.9271133 3.3048,14.8568042 3.3048,16.8939725 C3.0234,16.9173092 3,17.1282364 3,17.2218821 C3.4461,17.3622011 3.2112,18.9778141 3.3993,19.6336333 C3.5868,20.2891533 3.8925,20.4061356 3.8925,20.4061356 C3.8223,20.8977009 3.9864,21.3994384 3.9864,21.3994384 C3.3291,21.3186578 3.0354,21.5304826 3.1881,22.0217486 C3.3993,22.7003061 4.362,22.4663414 4.1976,22.0684219 C4.7139,22.1854042 5.3952,22.3963315 5.5593,22.8175876 C5.5125,23.0524499 5.4297,23.2944926 5.9055,23.3609123 C6.2157,23.8758141 6.3108,24.2234701 6.3108,24.2234701 C5.9235,24.5397114 6.2052,25.2068997 6.6984,25.1362915 C6.945,26.189731 7.6845,29 7.6845,29 L16.5,29 L25.3161,29 C25.3161,29 26.0556,26.189731 26.3022,25.1362915 C26.7954,25.2068997 27.0771,24.5397114 26.6895,24.2234701 C26.6895,24.2234701 26.7849,23.8758141 27.0951,23.3609123 C27.5709,23.2941935 27.4881,23.0524499 27.441,22.8175876 C27.6057,22.3963315 28.2861,22.1854042 28.8027,22.0684219 C28.6383,22.4663414 29.601,22.7000069 29.8122,22.0217486 C29.9649,21.5301834 29.6712,21.3186578 29.0142,21.3994384 C29.0142,21.3994384 29.1783,20.8974017 29.1081,20.4061356 C29.1078,20.4061356 29.4132,20.2891533 29.601,19.6336333 Z M10.1619,21.8960898 C9.3183,23.0859589 7.5987,23.2448275 6.8448,22.9591034 C6.9675,22.5605855 6.8031,22.3729949 6.3573,22.3969299 C6.0051,21.6705024 6.3807,21.2259096 6.6858,21.2259096 C6.5217,21.5771559 7.6014,21.858093 7.5309,20.9449725 C7.4607,20.0321512 6.2868,20.3127891 6.099,20.5937263 C6.0519,19.3766311 5.3946,18.7208119 5.3946,17.4564452 C5.3946,12.2116867 9.996,11.0643023 11.6865,11.0643023 C13.377,11.0643023 15.3492,10.8776093 15.5841,9.54293342 C15.6444,9.54293342 15.7113,9.54293342 15.7815,9.54293342 C15.7578,11.111574 12.8133,11.9310488 12.8133,11.9310488 C12.8133,11.9310488 12.8838,11.5094935 12.6021,11.4391844 C12.1794,12.0713677 10.2777,13.0314607 9.996,13.593335 C10.0197,13.4763527 9.8082,13.218453 9.5733,13.3590711 C9.5733,14.0615636 8.7045,14.1552093 8.7045,15.5835309 C8.7045,15.4898852 8.4462,15.3256312 8.235,15.4707372 C8.6811,16.2013532 8.3523,16.3796691 8.3523,17.2691538 C8.3523,18.1592368 9.1743,19.4939127 9.1743,19.4939127 C8.3994,19.2363122 7.8123,20.0560862 7.8594,20.6176613 C7.9065,21.1798348 8.6343,21.5077444 8.7984,21.366827 C8.9628,21.226508 8.8689,20.8988976 9.0567,20.7819153 C9.2445,20.6643345 9.9255,20.5009781 10.2645,21.1798348 C9.8859,21.3425928 9.9726,21.7390164 10.1619,21.8960898 Z M15.3966,18.8497618 C15.0795,18.6738395 13.7415,18.2525834 13.7415,19.6222642 C13.7415,20.9919449 15.3789,20.2720996 15.021,19.8331914 C15.3555,19.779936 15.8898,20.2194426 15.8898,20.7816161 C15.6036,20.8381625 15.6894,21.1702608 15.8577,21.3255391 C14.6691,22.1390302 12.462,22.2796483 11.6169,21.507146 C11.7579,21.1553014 11.6403,20.9216359 11.1474,20.7813169 C11.0301,20.2891533 11.2413,19.8029735 12.0042,19.8029735 C11.9208,19.9845803 12.0453,20.2658167 12.6177,20.1314814 C12.7764,20.094083 12.9786,19.9382063 12.9786,19.2590504 C12.9786,18.5798946 11.6403,18.2756208 10.8186,18.9311408 C10.3725,18.1353018 9.222,14.2949299 12.603,12.9838899 C15.984,11.6725507 16.0395,10.2912016 16.0395,9.54203586 C16.1115,9.54203586 16.1802,9.54203586 16.2423,9.54203586 C16.242,11.4388852 12.9666,15.4779177 15.3966,18.8497618 Z M22.1817,18.9317392 C21.3597,18.2762192 20.0217,18.580493 20.0217,19.2596488 C20.0217,19.9388046 20.2239,20.0946814 20.3823,20.1320798 C20.955,20.266415 21.0795,19.9854779 20.9958,19.8035718 C21.759,19.8035718 21.9702,20.2897517 21.8529,20.7819153 C21.36,20.9222342 21.2424,21.1558997 21.3834,21.5077444 C20.5383,22.2802467 18.3309,22.1393294 17.1426,21.3261375 C17.3106,21.1705599 17.3964,20.8387609 17.1102,20.7822144 C17.1102,20.220041 17.6445,19.7805344 17.979,19.8337898 C17.6214,20.272698 19.2588,20.9925433 19.2588,19.6228625 C19.2588,18.2531817 17.9205,18.6744379 17.6037,18.8503602 C20.0337,15.4782168 16.7583,11.4394836 16.7583,9.54293342 C16.8207,9.54293342 16.8894,9.54293342 16.9611,9.54293342 C16.9611,10.2920991 17.0169,11.6734483 20.3976,12.9847875 C23.7783,14.2955283 22.6278,18.1359002 22.1817,18.9317392 Z M26.901,20.5937263 C26.7132,20.3127891 25.5393,20.0321512 25.4688,20.9449725 C25.3986,21.8583922 26.4783,21.5771559 26.3139,21.2259096 C26.6196,21.2259096 26.9952,21.6705024 26.643,22.3969299 C26.1972,22.3729949 26.0328,22.5605855 26.1555,22.9591034 C25.4013,23.2448275 23.682,23.0859589 22.8381,21.8960898 C23.0274,21.7390164 23.1141,21.3425928 22.7349,21.1795356 C23.0739,20.5003797 23.7546,20.6640354 23.9424,20.7816161 C24.1302,20.8985984 24.0363,21.2262088 24.2007,21.3665278 C24.3648,21.5074452 25.0929,21.1795356 25.1397,20.6173621 C25.1865,20.055787 24.5997,19.236013 23.8251,19.4936135 C23.8251,19.4936135 24.6465,18.1589377 24.6465,17.2688546 C24.6465,16.3790707 24.318,16.2010541 24.7641,15.470438 C24.5529,15.325332 24.2946,15.4892868 24.2946,15.5832317 C24.2946,14.1549101 23.4258,14.0612644 23.4258,13.358772 C23.1912,13.2181538 22.98,13.4760535 23.0031,13.5930358 C22.7217,13.0311615 20.82,12.0710686 20.397,11.4388852 C20.1153,11.5091943 20.1858,11.9307496 20.1858,11.9307496 C20.1858,11.9307496 17.2413,11.1112748 17.2176,9.54263423 C17.2878,9.54263423 17.3547,9.54263423 17.4153,9.54263423 C17.6499,10.8776093 19.6221,11.0640031 21.3123,11.0640031 C23.0028,11.0640031 27.6048,12.2113875 27.6048,17.456146 C27.6054,18.7208119 26.9478,19.376332 26.901,20.5937263 Z"/>
</svg>
