<svg xmlns="http://www.w3.org/2000/svg" width="32" height="32" viewBox="0 0 32 32">
  <g fill="#4B0082" transform="translate(3 9)">
    <path d="M12.6585,12.7788387 L12.5515,12.7282581 L6.2015,9.744 L6.2015,12.4851613 C6.2015,13.7006452 9.0925,15.5070968 12.6585,15.5070968 C16.2245,15.5070968 19.1155,13.700129 19.1155,12.4851613 L19.1155,9.744 L12.6585,12.7788387 Z"/>
    <polygon points="12.659 0 0 5.949 12.659 11.897 25.316 5.949"/>
    <path d="M25.088,10.7463226 L25.087,10.6812903 C25.354,10.5063226 25.559,10.1672258 25.559,9.81470968 C25.559,9.32129032 25.2475,8.89135484 24.774,8.81393548 L24.774,5.94890323 L24.5225,5.94890323 L24.5225,8.82993548 C24.08,8.9403871 23.7125,9.32232258 23.7125,9.78270968 C23.7125,10.1352258 23.842,10.4423226 24.109,10.6172903 L24.082,10.7458065 L23.1455,14.7664516 L24.573,14.7664516 L26,14.7664516 L25.088,10.7463226 Z"/>
  </g>
</svg>
