<svg xmlns="http://www.w3.org/2000/svg" width="32" height="32" viewBox="0 0 32 32">
  <g fill="none" fill-rule="evenodd">
    <polygon fill="#4B0082" points="8 22.886 4.91 24.511 5.5 21.07 3 18.633 6.455 18.131 8 15 9.545 18.131 13 18.633 10.5 21.07 11.09 24.511"/>
    <polygon fill="#4B0082" points="24 22.886 20.91 24.511 21.5 21.07 19 18.633 22.455 18.131 24 15 25.545 18.131 29 18.633 26.5 21.07 27.09 24.511"/>
    <polygon fill="#4B0082" points="16 13.886 12.91 15.511 13.5 12.07 11 9.633 14.455 9.131 16 6 17.545 9.131 21 9.633 18.5 12.07 19.09 15.511"/>
  </g>
</svg>
